<?xml version="1.0" encoding="UTF-8" standalone="no"?>
<!-- Created with Inkscape (http://www.inkscape.org/) -->

<svg
   xmlns:dc="http://purl.org/dc/elements/1.1/"
   xmlns:cc="http://creativecommons.org/ns#"
   xmlns:rdf="http://www.w3.org/1999/02/22-rdf-syntax-ns#"
   xmlns:svg="http://www.w3.org/2000/svg"
   xmlns="http://www.w3.org/2000/svg"
   xmlns:sodipodi="http://sodipodi.sourceforge.net/DTD/sodipodi-0.dtd"
   xmlns:inkscape="http://www.inkscape.org/namespaces/inkscape"
   width="45.303303"
   height="20.000013"
   viewBox="0 0 11.986499 5.2916703"
   version="1.1"
   id="svg8"
   inkscape:version="0.92.3 (2405546, 2018-03-11)"
   sodipodi:docname="left-double.svg">
  <defs
     id="defs2" />
  <sodipodi:namedview
     id="base"
     pagecolor="#ffffff"
     bordercolor="#666666"
     borderopacity="1.0"
     inkscape:pageopacity="0.0"
     inkscape:pageshadow="2"
     inkscape:zoom="8"
     inkscape:cx="52.699016"
     inkscape:cy="0.32897789"
     inkscape:document-units="mm"
     inkscape:current-layer="layer1"
     showgrid="true"
     units="px"
     inkscape:snap-global="false"
     fit-margin-top="0"
     fit-margin-left="0"
     fit-margin-right="0"
     fit-margin-bottom="0"
     inkscape:window-width="1439"
     inkscape:window-height="657"
     inkscape:window-x="208"
     inkscape:window-y="208"
     inkscape:window-maximized="0">
    <inkscape:grid
       type="xygrid"
       id="grid4548"
       originx="-2.6458333"
       originy="-3.9687467" />
  </sodipodi:namedview>
  <metadata
     id="metadata5">
    <rdf:RDF>
      <cc:Work
         rdf:about="">
        <dc:format>image/svg+xml</dc:format>
        <dc:type
           rdf:resource="http://purl.org/dc/dcmitype/StillImage" />
        <dc:title></dc:title>
      </cc:Work>
    </rdf:RDF>
  </metadata>
  <g
     inkscape:label="Layer 1"
     inkscape:groupmode="layer"
     id="layer1"
     transform="translate(-2.6458333,-287.73957)">
    <path
       style="fill:#313131;fill-opacity:1;stroke:none;stroke-width:0.26458332px;stroke-linecap:butt;stroke-linejoin:miter;stroke-opacity:1"
       d="m 9.3405149,287.73802 -0.010852,0.006 c 5.27e-5,-2e-5 0.010335,-0.004 0.010335,-0.004 l -3.9661661,2.11563 c 0.060786,0.008 0.1232025,0.0178 0.1844847,0.0264 2.9049043,0.43453 5.9626475,-1.07919 9.0733485,-0.81907 -2.19202,0.18366 -4.441488,0.82435 -6.5406865,1.32188 2.0993555,0.49755 4.3489925,1.13872 6.5412035,1.3224 -3.1096,0.26002 -6.1662648,-1.25259 -9.0702481,-0.81959 -0.062495,0.009 -0.1261224,0.019 -0.1881021,0.0269 l 3.9666828,2.11564 c 0,0 -0.014874,-0.006 -0.014986,-0.006 l 0.01447,0.008 c 0,0 -2.620808,-1.01569 -4.0994915,-1.67277 -0.1350875,-0.0531 -0.3269802,-0.13103 -0.4283974,-0.1695 -1.1098533,-0.42099 -2.1439912,-0.79702 -2.1549072,-0.80098 -6.265e-4,-1.3e-4 -0.011886,-0.003 -0.011886,-0.003 0,0 0.00258,-0.001 0.00258,-0.001 -1.6e-6,0 -0.00207,-5.2e-4 -0.00207,-5.2e-4 0,0 0.00939,-0.002 0.00982,-0.002 0.00989,-0.004 1.045533,-0.3803 2.1559409,-0.80151 0.1019238,-0.0387 0.2945542,-0.11711 0.4304646,-0.17053 1.4789025,-0.6571 4.0984577,-1.67173 4.0984577,-1.67173 z"
       id="path4550"
       inkscape:connector-curvature="0" />
  </g>
</svg>
